<svg width="171" height="44" viewBox="0 0 171 44" fill="none" xmlns="http://www.w3.org/2000/svg">
<path d="M13.1669 3C9.67057 3 7.11437 5.10535 6.21094 7.33683C2.68722 8.10072 0 12.0285 0 16.5652C0 17.9209 0.266237 19.2791 0.83538 20.8043H5.30022C5.65508 19.82 6.59829 19.1087 7.71429 19.1087C9.132 19.1087 10.2857 20.2499 10.2857 21.6522C10.2857 23.0545 9.132 24.1957 7.71429 24.1957C6.59829 24.1957 5.65508 23.4843 5.30022 22.5H1.11161C0.481607 23.3504 0 24.3966 0 25.8913C0 28.2466 1.49004 30.2995 3.95089 31.422C3.26775 32.9939 3.29705 34.5425 4.05134 35.8549C4.93763 37.3971 6.71653 38.4084 8.78739 38.5822C9.79282 41.2613 12.494 42 14.024 42C15.4469 42 17.1429 41.3124 17.1429 38.0424V26.7391H12V30.2861C12.9951 30.6371 13.7143 31.57 13.7143 32.6739C13.7143 34.0762 12.5606 35.2174 11.1429 35.2174C9.72514 35.2174 8.57143 34.0762 8.57143 32.6739C8.57143 31.57 9.29057 30.6371 10.2857 30.2861V25.0435H17.1429V18.2609H12V14.0217H10.1283C9.77349 15.0061 8.83029 15.7174 7.71429 15.7174C6.29657 15.7174 5.14286 14.5762 5.14286 13.1739C5.14286 11.7716 6.29657 10.6304 7.71429 10.6304C8.83029 10.6304 9.77349 11.3418 10.1283 12.3261H13.7143V16.5652H17.1429V7.3981C17.1429 3.29632 15.6406 3 13.1669 3ZM7.71429 12.3261C7.48696 12.3261 7.26894 12.4154 7.10819 12.5744C6.94745 12.7334 6.85714 12.9491 6.85714 13.1739C6.85714 13.3988 6.94745 13.6144 7.10819 13.7734C7.26894 13.9324 7.48696 14.0217 7.71429 14.0217C7.94161 14.0217 8.15963 13.9324 8.32038 13.7734C8.48112 13.6144 8.57143 13.3988 8.57143 13.1739C8.57143 12.9491 8.48112 12.7334 8.32038 12.5744C8.15963 12.4154 7.94161 12.3261 7.71429 12.3261ZM7.71429 20.8043C7.48696 20.8043 7.26894 20.8937 7.10819 21.0527C6.94745 21.2117 6.85714 21.4273 6.85714 21.6522C6.85714 21.877 6.94745 22.0927 7.10819 22.2517C7.26894 22.4107 7.48696 22.5 7.71429 22.5C7.94161 22.5 8.15963 22.4107 8.32038 22.2517C8.48112 22.0927 8.57143 21.877 8.57143 21.6522C8.57143 21.4273 8.48112 21.2117 8.32038 21.0527C8.15963 20.8937 7.94161 20.8043 7.71429 20.8043ZM11.1429 31.8261C10.9155 31.8261 10.6975 31.9154 10.5368 32.0744C10.376 32.2334 10.2857 32.4491 10.2857 32.6739C10.2857 32.8988 10.376 33.1144 10.5368 33.2734C10.6975 33.4324 10.9155 33.5217 11.1429 33.5217C11.3702 33.5217 11.5882 33.4324 11.749 33.2734C11.9097 33.1144 12 32.8988 12 32.6739C12 32.4491 11.9097 32.2334 11.749 32.0744C11.5882 31.9154 11.3702 31.8261 11.1429 31.8261Z" fill="#3C28A4"/>
<mask id="path-2-outside-1_2_246" maskUnits="userSpaceOnUse" x="12" y="0" width="159" height="44" fill="black">
<rect fill="white" x="12" width="159" height="44"/>
<path d="M30.4335 41C27.7645 41 25.3414 40.4954 23.1641 39.4863C21.0219 38.4771 19.3186 37.1026 18.0544 35.3626C16.7902 33.5879 16.1054 31.5696 16 29.3077H25.1131C25.3589 30.5256 25.9384 31.4478 26.8514 32.0742C27.7996 32.6658 28.9761 32.9615 30.3808 32.9615C31.645 32.9615 32.6108 32.7353 33.278 32.283C33.9804 31.8306 34.4545 31.2738 34.7003 30.6126C34.9812 29.9515 35.1217 29.3077 35.1217 28.6813C35.1217 28.0201 34.9637 27.359 34.6476 26.6978C34.3667 26.0366 33.8575 25.4799 33.12 25.0275C32.3825 24.5403 31.3465 24.2967 30.0121 24.2967C28.7478 24.2967 27.6592 24.5577 26.7461 25.0797C25.833 25.6017 25.1833 26.4194 24.797 27.533L17.2642 25.0275L20.4249 5.19231H42.3384V13.2308H27.0095L26.272 17.772C27.0797 17.3892 27.9401 17.1108 28.8532 16.9368C29.7662 16.728 30.6793 16.6236 31.5924 16.6236C34.6125 16.6236 37.0708 17.2152 38.9671 18.3984C40.8635 19.5815 42.2507 21.1126 43.1286 22.9918C44.0417 24.8361 44.4982 26.75 44.4982 28.7335C44.4982 30.1603 44.2173 31.6044 43.6554 33.0659C43.0935 34.4927 42.2331 35.815 41.0742 37.033C39.9153 38.2161 38.4579 39.1731 36.702 39.9038C34.9461 40.6346 32.8566 41 30.4335 41Z"/>
<path d="M67.99 40.478H58.0341V11.9258H46.4452V3H79.579V11.9258H67.99V40.478Z"/>
<path d="M92.991 40.9478C90.0762 40.9478 87.5126 40.3388 85.3002 39.1209C83.1228 37.9029 81.4196 36.1978 80.1905 34.0055C78.9965 31.8132 78.3995 29.2729 78.3995 26.3846C78.3995 23.5659 79.014 21.0778 80.2432 18.9203C81.5074 16.728 83.2282 15.0055 85.4055 13.7527C87.6179 12.5 90.1289 11.8736 92.9383 11.8736C95.2912 11.8736 97.4158 12.3086 99.3122 13.1786C101.209 14.0485 102.789 15.2665 104.053 16.8324C105.352 18.3636 106.266 20.1557 106.792 22.2088C107.319 24.2271 107.372 26.3846 106.95 28.6813H83.8252V23.0962H97.3105C97.2754 21.6694 96.8364 20.5385 95.9936 19.7033C95.1507 18.8681 94.0621 18.4506 92.7276 18.4506C91.5687 18.4506 90.603 18.7463 89.8304 19.3379C89.0929 19.8947 88.531 20.7647 88.1447 21.9478C87.7584 23.131 87.5653 24.6273 87.5653 26.4368C87.5653 28.1071 87.7584 29.5165 88.1447 30.6648C88.531 31.7784 89.1105 32.6136 89.883 33.1703C90.6556 33.7271 91.6214 34.0055 92.7803 34.0055C94.0445 34.0055 95.0981 33.7445 95.9409 33.2225C96.7837 32.7006 97.3983 31.935 97.7846 30.9258H106.792C105.914 34.1273 104.281 36.598 101.893 38.3379C99.5054 40.0778 96.5379 40.9478 92.991 40.9478Z"/>
<path d="M123.283 41C120.474 41 117.998 40.391 115.856 39.1731C113.713 37.9203 112.028 36.1978 110.799 34.0055C109.605 31.8132 109.008 29.2903 109.008 26.4368C109.008 23.6529 109.622 21.1648 110.851 18.9725C112.116 16.7802 113.819 15.0577 115.961 13.8049C118.138 12.5174 120.579 11.8736 123.283 11.8736C125.882 11.8736 128.217 12.4304 130.289 13.544C132.361 14.6227 134.047 16.1364 135.346 18.0852C136.645 20.0339 137.418 22.3132 137.664 24.9231H128.077C128.006 23.3919 127.532 22.174 126.654 21.2692C125.812 20.3645 124.705 19.9121 123.336 19.9121C122.282 19.9121 121.387 20.1731 120.649 20.6951C119.912 21.217 119.332 21.9652 118.911 22.9396C118.525 23.8791 118.331 25.0449 118.331 26.4368C118.331 27.8288 118.525 29.0293 118.911 30.0385C119.297 31.0128 119.859 31.761 120.597 32.283C121.369 32.7701 122.282 33.0137 123.336 33.0137C124.74 33.0137 125.847 32.5788 126.654 31.7088C127.497 30.804 127.971 29.5513 128.077 27.9506H137.664C137.418 30.63 136.663 32.9441 135.399 34.8929C134.135 36.8416 132.466 38.3553 130.394 39.4341C128.358 40.478 125.987 41 123.283 41Z"/>
<path d="M150.775 25.706V40.478H141.767V3H150.775V15.4231C151.793 14.3095 152.882 13.4396 154.041 12.8132C155.2 12.1868 156.674 11.8736 158.465 11.8736C161.275 11.8736 163.558 12.7784 165.313 14.5879C167.104 16.3974 168 19.0073 168 22.4176V40.478H158.992V25.3929C158.992 23.6181 158.659 22.261 157.991 21.3214C157.359 20.3819 156.358 19.9121 154.989 19.9121C154.251 19.9121 153.549 20.1035 152.882 20.4863C152.25 20.869 151.74 21.478 151.354 22.3132C150.968 23.1484 150.775 24.2793 150.775 25.706Z"/>
</mask>
<path d="M30.4335 41C27.7645 41 25.3414 40.4954 23.1641 39.4863C21.0219 38.4771 19.3186 37.1026 18.0544 35.3626C16.7902 33.5879 16.1054 31.5696 16 29.3077H25.1131C25.3589 30.5256 25.9384 31.4478 26.8514 32.0742C27.7996 32.6658 28.9761 32.9615 30.3808 32.9615C31.645 32.9615 32.6108 32.7353 33.278 32.283C33.9804 31.8306 34.4545 31.2738 34.7003 30.6126C34.9812 29.9515 35.1217 29.3077 35.1217 28.6813C35.1217 28.0201 34.9637 27.359 34.6476 26.6978C34.3667 26.0366 33.8575 25.4799 33.12 25.0275C32.3825 24.5403 31.3465 24.2967 30.0121 24.2967C28.7478 24.2967 27.6592 24.5577 26.7461 25.0797C25.833 25.6017 25.1833 26.4194 24.797 27.533L17.2642 25.0275L20.4249 5.19231H42.3384V13.2308H27.0095L26.272 17.772C27.0797 17.3892 27.9401 17.1108 28.8532 16.9368C29.7662 16.728 30.6793 16.6236 31.5924 16.6236C34.6125 16.6236 37.0708 17.2152 38.9671 18.3984C40.8635 19.5815 42.2507 21.1126 43.1286 22.9918C44.0417 24.8361 44.4982 26.75 44.4982 28.7335C44.4982 30.1603 44.2173 31.6044 43.6554 33.0659C43.0935 34.4927 42.2331 35.815 41.0742 37.033C39.9153 38.2161 38.4579 39.1731 36.702 39.9038C34.9461 40.6346 32.8566 41 30.4335 41Z" fill="#110C22"/>
<path d="M67.99 40.478H58.0341V11.9258H46.4452V3H79.579V11.9258H67.99V40.478Z" fill="#110C22"/>
<path d="M92.991 40.9478C90.0762 40.9478 87.5126 40.3388 85.3002 39.1209C83.1228 37.9029 81.4196 36.1978 80.1905 34.0055C78.9965 31.8132 78.3995 29.2729 78.3995 26.3846C78.3995 23.5659 79.014 21.0778 80.2432 18.9203C81.5074 16.728 83.2282 15.0055 85.4055 13.7527C87.6179 12.5 90.1289 11.8736 92.9383 11.8736C95.2912 11.8736 97.4158 12.3086 99.3122 13.1786C101.209 14.0485 102.789 15.2665 104.053 16.8324C105.352 18.3636 106.266 20.1557 106.792 22.2088C107.319 24.2271 107.372 26.3846 106.95 28.6813H83.8252V23.0962H97.3105C97.2754 21.6694 96.8364 20.5385 95.9936 19.7033C95.1507 18.8681 94.0621 18.4506 92.7276 18.4506C91.5687 18.4506 90.603 18.7463 89.8304 19.3379C89.0929 19.8947 88.531 20.7647 88.1447 21.9478C87.7584 23.131 87.5653 24.6273 87.5653 26.4368C87.5653 28.1071 87.7584 29.5165 88.1447 30.6648C88.531 31.7784 89.1105 32.6136 89.883 33.1703C90.6556 33.7271 91.6214 34.0055 92.7803 34.0055C94.0445 34.0055 95.0981 33.7445 95.9409 33.2225C96.7837 32.7006 97.3983 31.935 97.7846 30.9258H106.792C105.914 34.1273 104.281 36.598 101.893 38.3379C99.5054 40.0778 96.5379 40.9478 92.991 40.9478Z" fill="#110C22"/>
<path d="M123.283 41C120.474 41 117.998 40.391 115.856 39.1731C113.713 37.9203 112.028 36.1978 110.799 34.0055C109.605 31.8132 109.008 29.2903 109.008 26.4368C109.008 23.6529 109.622 21.1648 110.851 18.9725C112.116 16.7802 113.819 15.0577 115.961 13.8049C118.138 12.5174 120.579 11.8736 123.283 11.8736C125.882 11.8736 128.217 12.4304 130.289 13.544C132.361 14.6227 134.047 16.1364 135.346 18.0852C136.645 20.0339 137.418 22.3132 137.664 24.9231H128.077C128.006 23.3919 127.532 22.174 126.654 21.2692C125.812 20.3645 124.705 19.9121 123.336 19.9121C122.282 19.9121 121.387 20.1731 120.649 20.6951C119.912 21.217 119.332 21.9652 118.911 22.9396C118.525 23.8791 118.331 25.0449 118.331 26.4368C118.331 27.8288 118.525 29.0293 118.911 30.0385C119.297 31.0128 119.859 31.761 120.597 32.283C121.369 32.7701 122.282 33.0137 123.336 33.0137C124.74 33.0137 125.847 32.5788 126.654 31.7088C127.497 30.804 127.971 29.5513 128.077 27.9506H137.664C137.418 30.63 136.663 32.9441 135.399 34.8929C134.135 36.8416 132.466 38.3553 130.394 39.4341C128.358 40.478 125.987 41 123.283 41Z" fill="#110C22"/>
<path d="M150.775 25.706V40.478H141.767V3H150.775V15.4231C151.793 14.3095 152.882 13.4396 154.041 12.8132C155.2 12.1868 156.674 11.8736 158.465 11.8736C161.275 11.8736 163.558 12.7784 165.313 14.5879C167.104 16.3974 168 19.0073 168 22.4176V40.478H158.992V25.3929C158.992 23.6181 158.659 22.261 157.991 21.3214C157.359 20.3819 156.358 19.9121 154.989 19.9121C154.251 19.9121 153.549 20.1035 152.882 20.4863C152.25 20.869 151.74 21.478 151.354 22.3132C150.968 23.1484 150.775 24.2793 150.775 25.706Z" fill="#110C22"/>
<path d="M30.4335 41C27.7645 41 25.3414 40.4954 23.1641 39.4863C21.0219 38.4771 19.3186 37.1026 18.0544 35.3626C16.7902 33.5879 16.1054 31.5696 16 29.3077H25.1131C25.3589 30.5256 25.9384 31.4478 26.8514 32.0742C27.7996 32.6658 28.9761 32.9615 30.3808 32.9615C31.645 32.9615 32.6108 32.7353 33.278 32.283C33.9804 31.8306 34.4545 31.2738 34.7003 30.6126C34.9812 29.9515 35.1217 29.3077 35.1217 28.6813C35.1217 28.0201 34.9637 27.359 34.6476 26.6978C34.3667 26.0366 33.8575 25.4799 33.12 25.0275C32.3825 24.5403 31.3465 24.2967 30.0121 24.2967C28.7478 24.2967 27.6592 24.5577 26.7461 25.0797C25.833 25.6017 25.1833 26.4194 24.797 27.533L17.2642 25.0275L20.4249 5.19231H42.3384V13.2308H27.0095L26.272 17.772C27.0797 17.3892 27.9401 17.1108 28.8532 16.9368C29.7662 16.728 30.6793 16.6236 31.5924 16.6236C34.6125 16.6236 37.0708 17.2152 38.9671 18.3984C40.8635 19.5815 42.2507 21.1126 43.1286 22.9918C44.0417 24.8361 44.4982 26.75 44.4982 28.7335C44.4982 30.1603 44.2173 31.6044 43.6554 33.0659C43.0935 34.4927 42.2331 35.815 41.0742 37.033C39.9153 38.2161 38.4579 39.1731 36.702 39.9038C34.9461 40.6346 32.8566 41 30.4335 41Z" stroke="#F3F3F4" stroke-width="6" mask="url(#path-2-outside-1_2_246)"/>
<path d="M67.99 40.478H58.0341V11.9258H46.4452V3H79.579V11.9258H67.99V40.478Z" stroke="#F3F3F4" stroke-width="6" mask="url(#path-2-outside-1_2_246)"/>
<path d="M92.991 40.9478C90.0762 40.9478 87.5126 40.3388 85.3002 39.1209C83.1228 37.9029 81.4196 36.1978 80.1905 34.0055C78.9965 31.8132 78.3995 29.2729 78.3995 26.3846C78.3995 23.5659 79.014 21.0778 80.2432 18.9203C81.5074 16.728 83.2282 15.0055 85.4055 13.7527C87.6179 12.5 90.1289 11.8736 92.9383 11.8736C95.2912 11.8736 97.4158 12.3086 99.3122 13.1786C101.209 14.0485 102.789 15.2665 104.053 16.8324C105.352 18.3636 106.266 20.1557 106.792 22.2088C107.319 24.2271 107.372 26.3846 106.95 28.6813H83.8252V23.0962H97.3105C97.2754 21.6694 96.8364 20.5385 95.9936 19.7033C95.1507 18.8681 94.0621 18.4506 92.7276 18.4506C91.5687 18.4506 90.603 18.7463 89.8304 19.3379C89.0929 19.8947 88.531 20.7647 88.1447 21.9478C87.7584 23.131 87.5653 24.6273 87.5653 26.4368C87.5653 28.1071 87.7584 29.5165 88.1447 30.6648C88.531 31.7784 89.1105 32.6136 89.883 33.1703C90.6556 33.7271 91.6214 34.0055 92.7803 34.0055C94.0445 34.0055 95.0981 33.7445 95.9409 33.2225C96.7837 32.7006 97.3983 31.935 97.7846 30.9258H106.792C105.914 34.1273 104.281 36.598 101.893 38.3379C99.5054 40.0778 96.5379 40.9478 92.991 40.9478Z" stroke="#F3F3F4" stroke-width="6" mask="url(#path-2-outside-1_2_246)"/>
<path d="M123.283 41C120.474 41 117.998 40.391 115.856 39.1731C113.713 37.9203 112.028 36.1978 110.799 34.0055C109.605 31.8132 109.008 29.2903 109.008 26.4368C109.008 23.6529 109.622 21.1648 110.851 18.9725C112.116 16.7802 113.819 15.0577 115.961 13.8049C118.138 12.5174 120.579 11.8736 123.283 11.8736C125.882 11.8736 128.217 12.4304 130.289 13.544C132.361 14.6227 134.047 16.1364 135.346 18.0852C136.645 20.0339 137.418 22.3132 137.664 24.9231H128.077C128.006 23.3919 127.532 22.174 126.654 21.2692C125.812 20.3645 124.705 19.9121 123.336 19.9121C122.282 19.9121 121.387 20.1731 120.649 20.6951C119.912 21.217 119.332 21.9652 118.911 22.9396C118.525 23.8791 118.331 25.0449 118.331 26.4368C118.331 27.8288 118.525 29.0293 118.911 30.0385C119.297 31.0128 119.859 31.761 120.597 32.283C121.369 32.7701 122.282 33.0137 123.336 33.0137C124.74 33.0137 125.847 32.5788 126.654 31.7088C127.497 30.804 127.971 29.5513 128.077 27.9506H137.664C137.418 30.63 136.663 32.9441 135.399 34.8929C134.135 36.8416 132.466 38.3553 130.394 39.4341C128.358 40.478 125.987 41 123.283 41Z" stroke="#F3F3F4" stroke-width="6" mask="url(#path-2-outside-1_2_246)"/>
<path d="M150.775 25.706V40.478H141.767V3H150.775V15.4231C151.793 14.3095 152.882 13.4396 154.041 12.8132C155.2 12.1868 156.674 11.8736 158.465 11.8736C161.275 11.8736 163.558 12.7784 165.313 14.5879C167.104 16.3974 168 19.0073 168 22.4176V40.478H158.992V25.3929C158.992 23.6181 158.659 22.261 157.991 21.3214C157.359 20.3819 156.358 19.9121 154.989 19.9121C154.251 19.9121 153.549 20.1035 152.882 20.4863C152.25 20.869 151.74 21.478 151.354 22.3132C150.968 23.1484 150.775 24.2793 150.775 25.706Z" stroke="#F3F3F4" stroke-width="6" mask="url(#path-2-outside-1_2_246)"/>
</svg>
