<svg width="64" height="64" viewBox="0 0 64 64" fill="none" xmlns="http://www.w3.org/2000/svg">
<path d="M56 10.6666H53.3333V7.99998C53.3333 7.29274 53.0524 6.61446 52.5523 6.11436C52.0522 5.61426 51.3739 5.33331 50.6667 5.33331C49.9594 5.33331 49.2811 5.61426 48.781 6.11436C48.281 6.61446 48 7.29274 48 7.99998V10.6666H45.3333C44.6261 10.6666 43.9478 10.9476 43.4477 11.4477C42.9476 11.9478 42.6667 12.6261 42.6667 13.3333C42.6667 14.0406 42.9476 14.7188 43.4477 15.2189C43.9478 15.719 44.6261 16 45.3333 16H48V18.6666C48 19.3739 48.281 20.0522 48.781 20.5523C49.2811 21.0524 49.9594 21.3333 50.6667 21.3333C51.3739 21.3333 52.0522 21.0524 52.5523 20.5523C53.0524 20.0522 53.3333 19.3739 53.3333 18.6666V16H56C56.7072 16 57.3855 15.719 57.8856 15.2189C58.3857 14.7188 58.6667 14.0406 58.6667 13.3333C58.6667 12.6261 58.3857 11.9478 57.8856 11.4477C57.3855 10.9476 56.7072 10.6666 56 10.6666Z" fill="#B3B1B8"/>
<path d="M18.6667 24H8C6.52724 24 5.33333 25.1939 5.33333 26.6667V56C5.33333 57.4728 6.52724 58.6667 8 58.6667H18.6667C20.1394 58.6667 21.3333 57.4728 21.3333 56V26.6667C21.3333 25.1939 20.1394 24 18.6667 24Z" fill="#110C22"/>
<path d="M34.6667 5.33331H24C22.5272 5.33331 21.3333 6.52722 21.3333 7.99998V56C21.3333 57.4727 22.5272 58.6666 24 58.6666H34.6667C36.1394 58.6666 37.3333 57.4727 37.3333 56V7.99998C37.3333 6.52722 36.1394 5.33331 34.6667 5.33331Z" fill="#B3B1B8"/>
<path d="M50.6667 29.3333H40C38.5272 29.3333 37.3333 30.5272 37.3333 32V56C37.3333 57.4727 38.5272 58.6666 40 58.6666H50.6667C52.1394 58.6666 53.3333 57.4727 53.3333 56V32C53.3333 30.5272 52.1394 29.3333 50.6667 29.3333Z" fill="#110C22"/>
</svg>
