<svg width="64" height="64" viewBox="0 0 64 64" fill="none" xmlns="http://www.w3.org/2000/svg">
<path d="M52 53.3333H49.3333V40C49.3333 38.4 48.2667 37.3333 46.6667 37.3333H34.4L38.9333 24.8C39.2 23.4667 38.9333 22.4 37.8667 21.6L25.8667 14.9333C25.0667 14.4 24 14.4 23.2 14.9333L16 18.9333C15.2 19.4667 14.6667 20.2667 14.6667 21.3333C14.6667 22.9333 15.7333 24 17.3333 24C17.8667 24 18.1333 24 18.6667 23.7333L24.5333 20.2667L33.0667 25.3333L28 39.2C28 39.4667 27.7333 39.7333 27.7333 40C27.7333 41.0667 28.2667 41.8667 29.0667 42.4C29.3333 42.6667 29.8667 42.6667 30.4 42.6667H43.7333V56C43.7333 56.2667 43.7333 56.5333 44 56.8V57.0667C44.2667 57.6 44.8 58.1333 45.3333 58.4C45.6 58.6667 46.1333 58.6667 46.4 58.6667H51.7333C53.3333 58.6667 54.4 57.6 54.4 56C54.4 54.4 53.6 53.3333 52 53.3333Z" fill="#110C22"/>
<path d="M42.6667 18.6667C45.6122 18.6667 48 16.2789 48 13.3333C48 10.3878 45.6122 8 42.6667 8C39.7211 8 37.3333 10.3878 37.3333 13.3333C37.3333 16.2789 39.7211 18.6667 42.6667 18.6667Z" fill="#110C22"/>
<path d="M25.3333 58.6667C16.5333 58.6667 9.33333 51.4667 9.33333 42.6667C9.33333 34.4 15.4667 27.7334 23.4667 26.6667C24.8 26.4 26.1333 27.4667 26.4 29.0667C26.6667 30.4 25.6 31.7334 24 32C18.1333 32.5334 13.8667 37.8667 14.6667 43.7334C15.2 49.0667 19.7333 53.3334 25.3333 53.0667C28.8 53.0667 31.7333 51.4667 33.8667 48.8C34.6667 47.7334 36.5333 47.4667 37.6 48.2667C38.6667 49.0667 38.9333 50.9334 38.1333 52C35.2 56.2667 30.4 58.6667 25.3333 58.6667Z" fill="#B3B1B8"/>
</svg>
