<svg width="64" height="64" viewBox="0 0 64 64" fill="none" xmlns="http://www.w3.org/2000/svg">
<path d="M32 16C34.9455 16 37.3333 13.6122 37.3333 10.6666C37.3333 7.72113 34.9455 5.33331 32 5.33331C29.0545 5.33331 26.6667 7.72113 26.6667 10.6666C26.6667 13.6122 29.0545 16 32 16Z" fill="#110C22"/>
<path d="M32 16C31.0612 15.9952 30.1407 15.7403 29.3333 15.2614V21.3334C29.3333 22.0406 29.6143 22.7189 30.1144 23.219C30.6145 23.7191 31.2928 24 32 24C32.7072 24 33.3855 23.7191 33.8856 23.219C34.3857 22.7189 34.6667 22.0406 34.6667 21.3334V15.2614C33.8592 15.7403 32.9387 15.9952 32 16Z" fill="#110C22"/>
<path d="M45.3333 58.6667H18.6667C16.5456 58.6646 14.512 57.821 13.0122 56.3212C11.5123 54.8214 10.6688 52.7878 10.6667 50.6667V26.6667C10.6688 24.5456 11.5123 22.512 13.0122 21.0122C14.512 19.5123 16.5456 18.6688 18.6667 18.6667H45.3333C47.4544 18.6688 49.488 19.5123 50.9879 21.0122C52.4877 22.512 53.3312 24.5456 53.3333 26.6667V50.6667C53.3312 52.7878 52.4877 54.8214 50.9879 56.3212C49.488 57.821 47.4544 58.6646 45.3333 58.6667Z" fill="#110C22"/>
<path d="M39.92 32.648L43.4133 18.6667H20.5867L24.08 32.648C24.2245 33.2247 24.5575 33.7365 25.0261 34.1023C25.4948 34.468 26.0722 34.6667 26.6667 34.6667H37.3333C37.9278 34.6667 38.5052 34.468 38.9739 34.1023C39.4425 33.7365 39.7755 33.2247 39.92 32.648Z" fill="#B3B1B8"/>
<path d="M5.33334 48C4.62609 48 3.94782 47.719 3.44772 47.2189C2.94762 46.7188 2.66667 46.0406 2.66667 45.3333V40C2.66667 39.2927 2.94762 38.6145 3.44772 38.1144C3.94782 37.6143 4.62609 37.3333 5.33334 37.3333C6.04058 37.3333 6.71886 37.6143 7.21896 38.1144C7.71905 38.6145 8.00001 39.2927 8.00001 40V45.3333C8.00001 46.0406 7.71905 46.7188 7.21896 47.2189C6.71886 47.719 6.04058 48 5.33334 48ZM58.6667 48C57.9594 48 57.2812 47.719 56.7811 47.2189C56.281 46.7188 56 46.0406 56 45.3333V40C56 39.2927 56.281 38.6145 56.7811 38.1144C57.2812 37.6143 57.9594 37.3333 58.6667 37.3333C59.3739 37.3333 60.0522 37.6143 60.5523 38.1144C61.0524 38.6145 61.3333 39.2927 61.3333 40V45.3333C61.3333 46.0406 61.0524 46.7188 60.5523 47.2189C60.0522 47.719 59.3739 48 58.6667 48Z" fill="#110C22"/>
<path d="M24 45.3333C25.4728 45.3333 26.6667 44.1394 26.6667 42.6667C26.6667 41.1939 25.4728 40 24 40C22.5272 40 21.3333 41.1939 21.3333 42.6667C21.3333 44.1394 22.5272 45.3333 24 45.3333Z" fill="#B3B1B8"/>
<path d="M40 45.3333C41.4728 45.3333 42.6667 44.1394 42.6667 42.6667C42.6667 41.1939 41.4728 40 40 40C38.5272 40 37.3333 41.1939 37.3333 42.6667C37.3333 44.1394 38.5272 45.3333 40 45.3333Z" fill="#B3B1B8"/>
</svg>
